# xmcd
#
# Track frame offsets: 
#        150
#        22549
#        46352
#        70283
#        90894
#        117504
#        139051
#        162201
#        180640
#        207416
#
# Disc length: 3127 seconds
#
# Revision: 3
# Processed by: cddbd v1.5.2PL0 Copyright (c) Steve Scherf et al.
# Submitted via: ExactAudioCopyFreeDBPlugin 1.0
#
DISCID=7d0c350a
DTITLE=John Mayall - Chicago Line
DYEAR=1988
DGENRE=Blues
TTITLE0=Chicago Line
TTITLE1=Gimme One More Day
TTITLE2=One Life To Live
TTITLE3=The Last Time
TTITLE4=Dream About The Blues
TTITLE5=Fascinatin' Lover
TTITLE6=Cold Blooded Mama
TTITLE7=The Dirty Dozens
TTITLE8=Tears Came Rollin' Down
TTITLE9=Life In The Jungle
EXTD=YEAR: 1988
EXTT0=
EXTT1=
EXTT2=
EXTT3=
EXTT4=
EXTT5=
EXTT6=
EXTT7=
EXTT8=
EXTT9=
PLAYORDER=
